<svg xmlns="http://www.w3.org/2000/svg" version="1.2" viewBox="0 0 1024 1024" fill="gold">
  <path d="M553 368c-18 16-48 16-68 5-16 4-27 15-34 30l-62 78c-30 17-51 48-78 69 7 21 18 8 29-2 30-22 60-44 83-74 17-18 35-38 50-57 2-26 3 8-1 16-2 31 1 62-4 93-20 119-32 239-58 356-13 7-27-6-40-8a428 428 0 0 1-117-732 428 428 0 0 1 678 231 429 429 0 0 1-216 479c-25 13-51 25-78 31-16-68-21-137-32-206-8-69-20-136-27-205 0-23-1-47-9-69 0-17 16 28 11 25l61 64c25 18 53 35 79 50 17-15-8-21-17-31-20-17-38-35-60-48-24-29-51-56-70-87l-20-8Zm12-168c-13-17-41-12-60-12-14 3-33 4-39 19 13 17 41 12 60 11 13-3 34-4 39-18zm-49 40c-26 9-36 46-26 70 8 21 39 32 53 10 17-18 8-49-4-68-5-5-15-15-23-12zm39 91c-2 24 7-1 5-11-1-26 5-63-22-77-26-11 2 4 6 14 13 22 10 50 11 74zm-60-81c-10 23-4 10 5-1 25-16-8-4-13 7-16 26-6 57-5 85 6 12 1-27 2-37 1-18 1-40 11-54Zm-17 53c-1 1 0 3 0 0zm0 3c-2 2 1 41 1 23l-1-23zm217 78c17 9 41 15 58 4-11-6-28-6-38-14 30 11 76 14 95-18-24 6-51 9-75-1-42-13-77-47-121-48-29 5-14 44-35 58-21 7 8 15 8 29 12 11 20 35 38 36-13-20 13 5 10-7 19 9 20 1 2-8-16-19 3-2 11 3 22 11 15-5 2-14-16-21 9 7 18 5 26 9 14-7 1-18-17-20 11 5 19 6 6 5 42 6 25-2-5-2-23-11-18-11zm-288 41c-18 17 4 8 12 2-15 20 12 6 16-5 15-14 19-37 37-46-25-4-29-31-34-51-14-25-46-7-65 3-45 23-93 53-146 42 12 25 47 27 71 20 15-4 31-9 7 0-17 2-32 13-6 13 16-1 34-10 47-15-11 9-29 13-38 22 23 10 50-7 66-19-4 11-28 21-25 28 14 0 27-11 38-19 0 8-26 31-11 28 12-2 21-16 29-20-1 9-28 28-15 26 6-1 12-8 17-9zm85-88c5 16 0-21-1-9 1 23-1-18-3-6-1 3 1 34 4 15zm56-14c-2-2 0 30 0 10 2-3 0-7 0-10zm3-1c0 1 0 1 0 0zm-7 14c1-8 1-22-1-4-4-1 2 5 0 7-2-2 2-2 1-3zm7-12c1 5 0-2 0 0zm0 11c-1 19-2-13 0-7 0 2-2 5 0 7zm-55 3c2 9-2-21 0-1zm42 0c-4-10 5 12 1-8-3 0 3 9-1 8zm-38-2c1-5-2-5 0 0zm3-1c1-2-2-2 0 0zm-2 1c-1 9-4-3 0 0zm8 15c-7 0-3 23-19 21 7 9 29 7 41 5 29-7 8-6 2-22 4-25-5-15-20-6l-4 2zm-10-10c2-5-1-7 0 0zm-38 101c0 17 17-23 6-15-6 6-23 26-6 13zm126-3c-16-31-8 13 0 0zm154 106c13-4 17-17 33-15 9-10-20-2-28-1-9 3-29 3-21 16 10 15 31 14 39 31 12-1-19-21-8-18 6 2 29 29 19 12-7-8-26-26-5-12 14 13 25 11 5-2-24-12 2-10 11 0 11-1-23-17-22-16-11-15-11 13-23 5Zm-440 21c-12 6-17-16-29-1-16 3-28 24-7 7 26-10-3 9-10 16 5 6 18-15 27-13-2 7-26 17-19 23 4-5 30-27 21-14-15 12-10 21 2 4 10-9 25-12 32-24-3-18-19-7-30-14-8 3-33-7-19 6 15-7 19 12 31 10z"/>
  <ellipse cx="500" cy="240" rx="40" ry="9" transform="rotate(-4)"/>
</svg>